<svg width="20" height="21" viewBox="0 0 20 21" fill="none" xmlns="http://www.w3.org/2000/svg">
<g clip-path="url(#clip0_378_3844)">
<path d="M16.5378 15.4167C16.5378 15.2583 16.5378 15.125 16.5378 15C16.5378 11.5833 16.5378 8.16528 16.5378 4.74583C16.5146 4.54771 16.551 4.34719 16.6423 4.16983C16.7336 3.99247 16.8756 3.84632 17.0503 3.75C17.1917 3.67467 17.3496 3.63582 17.5098 3.63699C17.67 3.63816 17.8274 3.6793 17.9677 3.75668C18.108 3.83407 18.2268 3.94525 18.3132 4.08014C18.3997 4.21504 18.4511 4.36938 18.4628 4.52917C18.4628 4.62083 18.4628 4.70833 18.4628 4.79583V16.2042C18.4628 17.0042 18.0961 17.375 17.2919 17.375C15.3878 17.375 13.4794 17.375 11.5711 17.375C10.3373 17.3914 9.13699 16.9735 8.18027 16.1942C7.22354 15.415 6.57133 14.3241 6.33775 13.1125C6.27341 12.8111 6.2399 12.504 6.23776 12.1958C6.23776 10.5292 6.23776 8.8875 6.23776 7.23333C6.22631 7.02237 6.28399 6.81343 6.40205 6.63823C6.52011 6.46302 6.6921 6.3311 6.89192 6.2625C7.07744 6.18742 7.28302 6.17787 7.47469 6.23545C7.66637 6.29303 7.83266 6.41428 7.94609 6.57917C8.07909 6.80396 8.15092 7.05966 8.15442 7.32083C8.17526 8.875 8.15442 10.4292 8.15442 11.9833C8.13092 12.7212 8.35302 13.4459 8.78587 14.0439C9.21872 14.6419 9.83783 15.0793 10.5461 15.2875C10.874 15.3818 11.2132 15.4308 11.5544 15.4333C13.1336 15.4333 14.7086 15.4333 16.2836 15.4333C16.3586 15.4375 16.4211 15.425 16.5378 15.4167Z" fill="white"/>
<path d="M3.45794 5.59167C3.45794 5.74167 3.45794 5.87083 3.45794 6.00833C3.45794 9.43056 3.45794 12.8486 3.45794 16.2625C3.48723 16.5172 3.41413 16.7731 3.25472 16.974C3.09531 17.1748 2.86266 17.3041 2.60794 17.3333C2.35322 17.3626 2.09731 17.2895 1.89649 17.1301C1.69567 16.9707 1.56639 16.7381 1.53711 16.4833C1.53711 16.3958 1.53711 16.3083 1.53711 16.2208V4.8C1.53711 3.99583 1.90794 3.625 2.70378 3.625C4.60794 3.625 6.51628 3.625 8.42461 3.625C9.65832 3.60821 10.8587 4.02545 11.816 4.80381C12.7734 5.58216 13.4268 6.67215 13.6621 7.88333C13.7265 8.1847 13.76 8.49184 13.7621 8.8C13.7621 10.4667 13.7621 12.1208 13.7621 13.7625C13.7726 13.9328 13.7375 14.1027 13.6604 14.2549C13.5832 14.407 13.4669 14.5358 13.3233 14.628C13.1798 14.7201 13.0143 14.7723 12.8438 14.7791C12.6734 14.7859 12.5042 14.7471 12.3538 14.6667C12.1821 14.5764 12.0413 14.437 11.9492 14.2663C11.8572 14.0956 11.8182 13.9013 11.8371 13.7083C11.8371 12.1472 11.8371 10.5819 11.8371 9.0125C11.8639 8.22913 11.6137 7.46139 11.1306 6.84416C10.6475 6.22693 9.9623 5.79969 9.19544 5.6375C8.93667 5.58211 8.67256 5.55556 8.40794 5.55833C6.85378 5.55833 5.29961 5.55833 3.74544 5.55833C3.65794 5.5625 3.57461 5.57917 3.45794 5.59167Z" fill="white"/>
</g>
<defs>
<clipPath id="clip0_378_3844">
<rect width="20" height="20" fill="white" transform="translate(0 0.5)"/>
</clipPath>
</defs>
</svg>
